<?xml version="1.0" standalone="yes"?>
<!DOCTYPE svg PUBLIC "-//W3C//DTD SVG 1.1//EN"
 "http://www.w3.org/Graphics/SVG/1.1/DTD/svg11.dtd">
<svg xmlns="http://www.w3.org/2000/svg" version="1.1"
  width="100%" height="100%" viewBox="0 0 1024 768"
  style="fill: none; font-family: Helvetica;
 font: Helvetica;
">

<!-- Creator: NGspice -->

<rect x="0" y="0" width="1024" height="768" fill="black" stroke="none"/>
<text stroke="none" fill="white" font-size="16" x="358" y="752">
tdclk
</text>
<text stroke="none" fill="white" font-size="16" x="10" y="16">
tran4: Constant values
</text>
<path stroke="white" stroke-dasharray="1,2" d="M50 720l0 -663"/>
<text stroke="none" fill="white" font-size="16" x="35" y="728">
0.1
</text>
<path stroke="white" stroke-dasharray="1,2" d="M127 720l0 -663"/>
<text stroke="none" fill="white" font-size="16" x="112" y="728">
0.2
</text>
<path stroke="white" stroke-dasharray="1,2" d="M204 720l0 -663"/>
<text stroke="none" fill="white" font-size="16" x="189" y="728">
0.3
</text>
<path stroke="white" stroke-dasharray="1,2" d="M281 720l0 -663"/>
<text stroke="none" fill="white" font-size="16" x="266" y="728">
0.4
</text>
<path stroke="white" stroke-dasharray="1,2" d="M358 720l0 -663"/>
<text stroke="none" fill="white" font-size="16" x="343" y="728">
0.5
</text>
<path stroke="white" stroke-dasharray="1,2" d="M435 720l0 -663"/>
<text stroke="none" fill="white" font-size="16" x="420" y="728">
0.6
</text>
<path stroke="white" stroke-dasharray="1,2" d="M512 720l0 -663"/>
<text stroke="none" fill="white" font-size="16" x="497" y="728">
0.7
</text>
<path stroke="white" stroke-dasharray="1,2" d="M589 720l0 -663"/>
<text stroke="none" fill="white" font-size="16" x="574" y="728">
0.8
</text>
<path stroke="white" stroke-dasharray="1,2" d="M666 720l0 -663"/>
<text stroke="none" fill="white" font-size="16" x="651" y="728">
0.9
</text>
<path stroke="white" stroke-dasharray="1,2" d="M743 720l0 -663"/>
<text stroke="none" fill="white" font-size="16" x="728" y="728">
1.0
</text>
<path stroke="white" stroke-dasharray="1,2" d="M820 720l0 -663"/>
<text stroke="none" fill="white" font-size="16" x="805" y="728">
1.1
</text>
<path stroke="white" stroke-dasharray="1,2" d="M897 720l0 -663"/>
<text stroke="none" fill="white" font-size="16" x="882" y="728">
1.2
</text>
<path stroke="white" stroke-dasharray="1,2" d="M974 720l0 -663"/>
<text stroke="none" fill="white" font-size="16" x="959" y="728">
1.3
</text>
<text stroke="none" fill="white" font-size="16" x="614" y="752">
n     
</text>
<path stroke="white" d="M50 720l924 0"/>
<text stroke="none" fill="white" font-size="16" x="18" y="728">
0.0
</text>
<path stroke="white" stroke-dasharray="1,2" d="M50 669l924 0"/>
<text stroke="none" fill="white" font-size="16" x="18" y="677">
0.1
</text>
<path stroke="white" stroke-dasharray="1,2" d="M50 618l924 0"/>
<text stroke="none" fill="white" font-size="16" x="18" y="626">
0.2
</text>
<path stroke="white" stroke-dasharray="1,2" d="M50 567l924 0"/>
<text stroke="none" fill="white" font-size="16" x="18" y="575">
0.3
</text>
<path stroke="white" stroke-dasharray="1,2" d="M50 516l924 0"/>
<text stroke="none" fill="white" font-size="16" x="18" y="524">
0.4
</text>
<path stroke="white" stroke-dasharray="1,2" d="M50 465l924 0"/>
<text stroke="none" fill="white" font-size="16" x="18" y="473">
0.5
</text>
<path stroke="white" stroke-dasharray="1,2" d="M50 414l924 0"/>
<text stroke="none" fill="white" font-size="16" x="18" y="422">
0.6
</text>
<path stroke="white" stroke-dasharray="1,2" d="M50 363l924 0"/>
<text stroke="none" fill="white" font-size="16" x="18" y="371">
0.7
</text>
<path stroke="white" stroke-dasharray="1,2" d="M50 312l924 0"/>
<text stroke="none" fill="white" font-size="16" x="18" y="320">
0.8
</text>
<path stroke="white" stroke-dasharray="1,2" d="M50 261l924 0"/>
<text stroke="none" fill="white" font-size="16" x="18" y="269">
0.9
</text>
<path stroke="white" stroke-dasharray="1,2" d="M50 210l924 0"/>
<text stroke="none" fill="white" font-size="16" x="18" y="218">
1.0
</text>
<path stroke="white" stroke-dasharray="1,2" d="M50 159l924 0"/>
<text stroke="none" fill="white" font-size="16" x="18" y="167">
1.1
</text>
<path stroke="white" stroke-dasharray="1,2" d="M50 108l924 0"/>
<text stroke="none" fill="white" font-size="16" x="18" y="116">
1.2
</text>
<path stroke="white" stroke-dasharray="1,2" d="M50 57l924 0"/>
<text stroke="none" fill="white" font-size="16" x="18" y="65">
1.3
</text>
<text stroke="none" fill="white" font-size="16" x="10" y="32">
n     
</text>
<path stroke="red" d="M462 23l46 0"/>
<text stroke="none" fill="white" font-size="16" x="518" y="32">
tclkq
</text>
<path stroke="red" d="M908 184l28 0M894 183l14 1M729 183l165 0M715 184l14 -1M688 184l27 0M674 183l14 1M509 183l165 0M495 184l14 -1M427 184l68 0M413 183l14 1M165 183l248 0M152 182l13 1M138 181l14 1M124 174l14 7M110 101l14 73M97 720l13 -619M69 720l28 0"/>
</svg>
